<svg id="Livello_1" data-name="Livello 1" xmlns="http://www.w3.org/2000/svg" viewBox="0 0 236.86 220.97"><defs><style>.cls-1{fill:#efefef;}</style></defs><path class="cls-1" d="M841,494.22a1.47,1.47,0,0,1,.21,0,2.22,2.22,0,0,1,0,2.64H841Z" transform="translate(-841.02 -429.62)"/><path d="M893.92,650.6c.52-5.09,1-10.17,1.55-15.26a327.67,327.67,0,0,1,7.21-41.5c8.4-35.44,20.29-69.62,37.85-101.67,2.93-5.35,6.18-10.53,9.39-15.73a63.88,63.88,0,0,1,15.69-16.8,107.2,107.2,0,0,1,48.73-21.4c11.46-1.92,22.9-1.93,34.18,1.35a43.23,43.23,0,0,1,17,9.05,35.25,35.25,0,0,1,12.3,25.64c1.26,32.62-9.06,61-32.36,84.22-9,9-19.23,16.32-30,23-13.29,8.19-27.31,15-41.44,21.52-13.73,6.38-27.57,12.52-41,19.47-10.85,5.6-21.24,11.94-30.51,20C899.49,645,896.74,647.74,893.92,650.6Z" transform="translate(-841.02 -429.62)"/><path d="M841.23,496.86v-2.64c.17-5,.44-9.89,1.1-14.8,1.84-13.65,8.69-24.35,19-33.19,8.68-7.44,18.35-12.83,29.62-15.12,13-2.65,25.76-1.95,37.94,3.69,9.69,4.48,16.82,11.46,20.17,21.86a29.26,29.26,0,0,1,1.3,8.26,2,2,0,0,1-.44,1.32c-14.87,19.32-25.58,40.86-34,63.62a360,360,0,0,0-12.41,40.73c-2.06,8.5-3.89,17-5.31,25.67a346,346,0,0,0-4.69,48.61c0,1.85,0,3.71,0,5.56l-.39.05c-.73-1.25-1.45-2.51-2.18-3.77a482.93,482.93,0,0,1-24.43-48.93,339,339,0,0,1-15.6-43.7,272.41,272.41,0,0,1-7.08-30.89A209.54,209.54,0,0,1,841.23,496.86Z" transform="translate(-841.02 -429.62)"/></svg>